<?xml version="1.0" encoding="UTF-8" standalone="no"?>
<svg
   version="1.1"
   x="0px"
   y="0px"
   viewBox="-13.05 8.347 144 144"
   enable-background="new -13.05 8.347 100 69.617"
   xml:space="preserve"
   id="svg10"
   width="144"
   height="144"
   xmlns="http://www.w3.org/2000/svg"
   xmlns:svg="http://www.w3.org/2000/svg"><defs
     id="defs14" /><path
     id="path2-9-2-7"
     d="m 59.005005,17.456686 c -53.9726424,0 -72.055006,62.655299 -72.055006,62.655299 0,0 18.0823636,63.125325 72.055006,63.125325 53.970815,0 71.944995,-63.125325 71.944995,-63.125325 0,0 -17.97418,-62.655299 -71.944995,-62.655299 z m 0.0036,17.234668 c 3.204827,0 6.333028,0.327924 9.351326,0.956311 -2.612594,2.375926 -5.304845,5.219709 -7.784551,8.306789 -5.293967,6.590381 -14.175194,20.079245 -14.175194,36.392544 v 0.71634 C 38.893492,73.81429 34.5571,64.906377 32.408498,59.421202 30.395132,54.281115 29.269854,49.7359 28.703258,46.2023 36.764891,39.040681 47.377234,34.691354 59.008618,34.691354 Z m 14.42926,2.329005 c 13.66804,4.549026 24.461961,15.38248 28.957365,29.077333 -3.363459,-1.076045 -7.170402,-1.985091 -11.084049,-2.590134 -8.353079,-1.290579 -24.477735,-2.23473 -38.605104,5.921323 l -0.621069,0.356417 c 2.523988,-10.126293 8.071551,-18.338102 11.747377,-22.940753 3.448483,-4.319354 6.824932,-7.567162 9.605408,-9.824186 z M 24.980353,49.914606 c 0.750793,3.446152 1.864273,7.191809 3.295903,10.879289 2.38993,6.156707 5.460152,11.75233 9.125482,16.634792 4.397476,5.859406 9.548765,10.517363 15.304428,13.839952 l 0.617528,0.356416 c -10.031858,2.877227 -19.914637,2.181124 -25.739065,1.298599 -5.4642,-0.827742 -9.965908,-2.126396 -13.310649,-3.405301 -0.603887,-2.962343 -0.921007,-6.030633 -0.921007,-9.171355 0,-11.692 4.399321,-22.355583 11.627393,-30.432392 z m 54.163598,17.097046 c 4.452998,-0.07479 8.379945,0.32095 11.292168,0.762231 5.464216,0.827725 9.967061,2.125204 13.310651,3.405283 0.60506,2.962361 0.921,6.030633 0.921,9.171356 0,11.692056 -4.39577,22.354408 -11.623865,30.432388 -0.750794,-3.44732 -1.867796,-7.19179 -3.299427,-10.879286 C 87.354531,93.7469 84.284326,88.147791 80.618979,83.26531 76.221501,77.405885 71.073772,72.751471 65.318091,69.428881 l -0.62107,-0.35994 c 5.015964,-1.438623 9.993913,-1.982525 14.44693,-2.057289 z m -7.523402,12.619007 c 7.506707,7.249066 11.843081,16.160466 13.991701,21.645661 2.013366,5.14012 3.141011,9.68178 3.708763,13.21538 -8.062916,7.16163 -18.677572,11.51447 -30.308975,11.51447 -3.204844,0 -6.333009,-0.33146 -9.351324,-0.95984 2.61261,-2.37594 5.304844,-5.21617 7.78455,-8.30326 5.293985,-6.5904 14.175194,-20.082719 14.175194,-36.396072 z m -5.684912,11.278039 c -2.52399,10.126332 -8.071551,18.338082 -11.747378,22.940752 -3.448502,4.31935 -6.826089,7.57185 -9.605407,9.82771 -13.669238,-4.54903 -24.465454,-15.38712 -28.960875,-29.080855 3.363404,1.076044 7.173851,1.985073 11.087499,2.590134 2.895909,0.447676 6.724947,0.853978 11.080454,0.853978 8.212044,0 18.293674,-1.442814 27.524651,-6.771778 z"
     style="fill:#ffd556;stroke-width:1.80675" /></svg>
